<svg xmlns="http://www.w3.org/2000/svg" viewBox="0 0 120 56" fill="none">
  <defs>
    <radialGradient id="moonGlow" cx="0" cy="0" r="1" gradientUnits="userSpaceOnUse" gradientTransform="translate(23 21) rotate(90) scale(22)">
      <stop stop-color="#FFEEC7"/>
      <stop offset="1" stop-color="#FFC87F"/>
    </radialGradient>
    <linearGradient id="petalFill" x1="0" y1="0" x2="1" y2="1">
      <stop stop-color="#FFD7E8"/>
      <stop offset="1" stop-color="#FFB5D3"/>
    </linearGradient>
  </defs>
  <path d="M28.6 7C21.46 7 15.67 12.79 15.67 19.93C15.67 27.07 21.46 32.86 28.6 32.86C31.95 32.86 34.99 31.58 37.29 29.5C33.42 29.05 30.42 25.76 30.42 21.77C30.42 17.78 33.42 14.49 37.29 14.03C34.99 11.95 31.95 10.67 28.6 10.67V7Z" fill="url(#moonGlow)"/>
  <g transform="translate(45 10)" fill="url(#petalFill)">
    <path d="M8 1.2C9.5 3.5 9.2 5.8 8 7C6.8 5.8 6.5 3.5 8 1.2Z"/>
    <path d="M14.8 8C12.5 9.5 10.2 9.2 9 8C10.2 6.8 12.5 6.5 14.8 8Z"/>
    <path d="M8 14.8C6.5 12.5 6.8 10.2 8 9C9.2 10.2 9.5 12.5 8 14.8Z"/>
    <path d="M1.2 8C3.5 6.5 5.8 6.8 7 8C5.8 9.2 3.5 9.5 1.2 8Z"/>
    <circle cx="8" cy="8" r="1.8" fill="#FFF4D9"/>
  </g>
  <g transform="translate(84 4) scale(.7)" fill="url(#petalFill)" opacity="0.9">
    <path d="M8 1.2C9.5 3.5 9.2 5.8 8 7C6.8 5.8 6.5 3.5 8 1.2Z"/>
    <path d="M14.8 8C12.5 9.5 10.2 9.2 9 8C10.2 6.8 12.5 6.5 14.8 8Z"/>
    <path d="M8 14.8C6.5 12.5 6.8 10.2 8 9C9.2 10.2 9.5 12.5 8 14.8Z"/>
    <path d="M1.2 8C3.5 6.5 5.8 6.8 7 8C5.8 9.2 3.5 9.5 1.2 8Z"/>
    <circle cx="8" cy="8" r="1.8" fill="#FFF4D9"/>
  </g>
</svg>
